<?xml version="1.0" encoding="utf-8"?>
<!-- Svg Vector Icons : http://www.onlinewebfonts.com/icon -->
<!DOCTYPE svg PUBLIC "-//W3C//DTD SVG 1.1//EN" "http://www.w3.org/Graphics/SVG/1.1/DTD/svg11.dtd">
<svg version="1.1" xmlns="http://www.w3.org/2000/svg" xmlns:xlink="http://www.w3.org/1999/xlink" x="0px" y="0px" viewBox="0 0 1000 1000" enable-background="new 0 0 1000 1000" xml:space="preserve">
<metadata> Svg Vector Icons : http://www.onlinewebfonts.com/icon </metadata>
<g><path d="M989.7,280.2c1.3-9.1-1-18.3-6.4-25.7c-5.4-7.4-13.4-12.2-22.3-13.5l-90.2-13.3l-16.4-91.3c-3.4-18.8-21.1-31.3-39.4-27.8l-330.2,62.2L228,132.9c-18.5-2.7-35.7,10.4-38.4,29.3l-9.3,65.8L37.7,254.9c-8.9,1.7-16.7,6.8-21.8,14.4c-5.1,7.5-7,16.9-5.4,25.9l102.3,568.4c1.6,9,6.7,17,14.1,22.2c5.7,4,12.4,6.1,19.2,6.1c2.1,0,4.1-0.2,6.1-0.6l454.2-85.5l269.1,39.7c1.6,0.2,3.3,0.4,4.9,0.4c16.6,0,31.1-12.5,33.5-29.7l9.9-70.1l5.7-1.1c18.4-3.5,30.5-21.5,27.2-40.3l-15.1-84L989.7,280.2z M793.9,182.9l6.2,34.3l-105.6-15.6L793.9,182.9z M130.7,579.9L83.3,316.7l86.8-16.4L130.7,579.9z M173.4,817L159.5,740l237.3,35L173.4,817z M903.2,407.7L873,622.1l-9.1,64.9l-10.2,72.3l-1.8,12.7l-36.9-5.4l-209.7-30.9l-419.4-61.9l54.6-386.7l10.2-72.4l1.2-8.5l24.6,3.6l209.7,30.9l327,48.3l70.7,10.4l34,5L903.2,407.7z"/><path d="M392,449c35.6,5.2,68.6-20,73.7-56.3c5.1-36.4-19.5-70.1-55.1-75.3c-35.6-5.3-68.6,20-73.7,56.3C331.7,410,356.4,443.8,392,449z"/><path d="M773,495.4l-61.7,65.4L633.4,404L485.5,577.7c0,0-194.4-80-247.9,58.8l501.9,74l74.2,10.9l-4.3-24.1L773,495.4z"/></g>
</svg>